<?xml version="1.0" standalone="no"?>
<!DOCTYPE svg PUBLIC "-//W3C//DTD SVG 20010904//EN"
 "http://www.w3.org/TR/2001/REC-SVG-20010904/DTD/svg10.dtd">
<svg version="1.0" xmlns="http://www.w3.org/2000/svg"
 width="360.000000pt" height="360.000000pt" viewBox="0 0 360.000000 360.000000"
 preserveAspectRatio="xMidYMid meet">

<g transform="translate(0.000000,360.000000) scale(0.100000,-0.100000)"
fill="#000000" stroke="none">
<path d="M1370 3348 c-238 -20 -481 -143 -654 -330 -519 -560 -355 -1497 319
-1819 160 -76 239 -93 435 -93 128 -1 181 4 235 18 94 25 206 71 284 118 34
21 65 38 67 38 3 0 18 -15 35 -34 l30 -35 87 92 c48 50 116 122 151 160 l65
67 -34 35 -33 34 45 88 c141 275 168 620 72 909 -128 385 -436 666 -809 738
-100 19 -186 23 -295 14z m328 -227 c230 -67 431 -239 545 -467 19 -38 42 -76
51 -83 9 -8 16 -28 16 -45 0 -17 7 -69 15 -116 29 -163 14 -374 -36 -504 -10
-28 -19 -61 -19 -72 0 -12 -7 -27 -16 -35 -27 -22 -44 -66 -44 -114 0 -25 -5
-45 -11 -45 -5 0 -8 3 -6 8 3 4 2 15 -2 25 -5 15 -13 9 -40 -30 -29 -42 -30
-45 -7 -24 25 24 26 24 26 4 0 -25 -16 -39 -55 -48 -17 -4 -50 -27 -75 -51
-182 -175 -477 -260 -728 -208 -337 69 -586 317 -688 684 -29 102 -26 357 5
470 46 171 132 319 253 436 121 118 258 194 413 228 99 22 304 15 403 -13z"/>
<path d="M940 2791 c-135 -143 -205 -310 -217 -518 -10 -183 34 -355 129 -501
88 -134 233 -256 276 -233 22 12 32 39 23 62 -3 9 -34 39 -68 66 -133 106
-215 240 -254 413 -15 66 -12 240 6 316 28 123 113 272 204 358 17 17 31 40
31 52 0 22 -33 54 -55 54 -5 0 -39 -31 -75 -69z"/>
<path d="M2360 1296 c-80 -85 -146 -159 -148 -165 -3 -9 680 -807 723 -843
119 -102 297 -63 379 82 26 47 31 65 31 125 0 137 36 95 -675 793 l-166 162
-144 -154z"/>
</g>
</svg>
